<svg width="80" height="60" viewBox="0 0 80 60" fill="none" xmlns="http://www.w3.org/2000/svg">
<path fill-rule="evenodd" clip-rule="evenodd" d="M38.9138 41.3397C38.6898 41.117 38.3834 40.9952 38.0664 41.003H35.8616V47.4563H36.5972V44.7065H38.0664C38.3833 44.7143 38.6896 44.5927 38.9136 44.3701C39.1375 44.1476 39.2596 43.8435 39.2512 43.5291V42.1259C39.2602 41.8275 39.1369 41.5401 38.9138 41.3397ZM32.0777 47.4526V41.7291L34.2237 41.7328V41.003H31.3422V47.4526H32.0777ZM38.0664 43.9767C38.1891 43.9878 38.3105 43.9442 38.3977 43.8578C38.4848 43.7713 38.5288 43.6509 38.5175 43.5291V42.1316C38.5168 42.0178 38.467 41.9097 38.3809 41.8346C38.2947 41.7595 38.1802 41.7245 38.0664 41.7385H36.5972V43.9823L38.0664 43.9767ZM42.2995 47.509H43.0332L44.6199 41.003H43.8844L42.9289 44.9322C42.9295 44.9473 42.9236 44.962 42.9129 44.9727C42.9021 44.9834 42.8873 44.9892 42.8721 44.9886H42.3033C42.2718 44.9586 42.2518 44.9188 42.2465 44.8758L41.2853 41.003H40.5517L41.6209 45.4325C41.6388 45.6017 41.7893 45.7259 41.9602 45.7128H42.7507L42.2995 47.509ZM48.91 47.4563V41.7291H47.0446V47.509H46.3109V41.003H49.6436V47.4563H48.91ZM54.4455 41.7291V47.509L54.4493 47.4563H55.1848V41.003H51.8465V47.509H52.582V41.7291H54.4455ZM57.5526 47.509H56.819L57.892 41.336C57.9285 41.1774 58.0675 41.0626 58.2313 41.0557H59.5261C59.697 41.0425 59.8475 41.1668 59.8654 41.336L60.9384 47.509H60.2048L59.9223 45.9385H57.782L57.5526 47.509ZM59.2474 41.7291C59.2789 41.7591 59.299 41.7989 59.3043 41.8419L59.8654 45.2087H58.0019L58.5706 41.8419C58.5706 41.7855 58.5706 41.7291 58.6256 41.7291H59.2474Z" fill="#2CB3C1"/>
<path fill-rule="evenodd" clip-rule="evenodd" d="M60.546 22.2C60.0618 22.6726 59.7956 23.3226 59.8104 23.9963L59.8161 33.2502C59.7915 33.9251 60.0592 34.5783 60.5516 35.0446C61.0271 35.524 61.6805 35.788 62.3583 35.7743H64.618C65.2983 35.7988 65.9565 35.5331 66.4265 35.0446C66.9095 34.5721 67.1749 33.923 67.1602 33.2502V23.9906C67.1846 23.3156 66.9177 22.6622 66.4265 22.1944C65.9483 21.7151 65.2918 21.4531 64.6123 21.4703H62.3526C61.6729 21.4461 61.0154 21.7118 60.546 22.2ZM41.7901 22.1993C41.3102 22.6751 41.0447 23.3232 41.054 23.9963L41.0597 33.2558C41.0351 33.9308 41.3028 34.5839 41.7952 35.0502C42.2707 35.5296 42.9241 35.7936 43.6019 35.78H45.8616C46.5419 35.8044 47.2001 35.5388 47.6701 35.0502C48.1531 34.5777 48.4185 33.9286 48.4038 33.2558V23.9963C48.4282 23.3212 48.1613 22.6678 47.6701 22.2C47.1943 21.7201 46.54 21.4561 45.8616 21.4703H43.6019C42.9235 21.4605 42.27 21.7235 41.7901 22.1993ZM16.0322 35.5486H14.4512L16.7659 22.1361C16.8589 21.7994 17.1513 21.5542 17.5014 21.5192H20.3261C20.6846 21.5327 20.9875 21.7874 21.0597 22.1361L23.3763 35.5486H21.8009L21.2322 32.1254H16.5971L16.0322 35.5486ZM52.1896 21.5831V27.0264H54.3355L57.2739 21.5831H58.9118L55.636 27.7562V27.9236L58.9118 35.4997H57.2739L54.3355 28.5894H52.1896V35.4922H50.6161V21.5737L52.1896 21.5831ZM19.5355 23.1461C19.6474 23.1461 19.7043 23.2025 19.7043 23.3699L20.9479 30.617H16.872L18.0663 23.3699C18.1232 23.2025 18.1782 23.1461 18.2351 23.1461H19.5355ZM26.4265 23.1461V35.6051H24.8455V21.5831H31.1166V23.1536L26.4265 23.1461ZM38.963 22.2565C38.4724 21.8067 37.8241 21.5651 37.1564 21.5831H32.417V35.6145H33.9981V29.6088H37.1564C37.836 29.6329 38.4936 29.3673 38.963 28.879C39.4467 28.4069 39.7128 27.7578 39.6986 27.0847V23.9963C39.7341 23.3353 39.4632 22.6945 38.963 22.2565ZM37.1564 28.0364C37.4145 28.0478 37.6655 27.9509 37.848 27.7695C38.0305 27.5881 38.1276 27.3388 38.1156 27.0828V23.9963C38.1156 23.432 37.7213 23.1536 37.1564 23.1536H33.9981V28.0439L37.1564 28.0364ZM42.637 33.2558C42.625 33.5119 42.7221 33.7611 42.9046 33.9425C43.0871 34.1239 43.3381 34.2208 43.5962 34.2094H45.8559C46.1142 34.2208 46.3653 34.124 46.5481 33.9426C46.7309 33.7613 46.8285 33.5121 46.8171 33.2558V23.9963C46.829 23.7397 46.7317 23.49 46.5488 23.3083C46.366 23.1265 46.1145 23.0294 45.8559 23.0408H43.6019C43.3435 23.0294 43.0921 23.1265 42.9096 23.3083C42.727 23.4902 42.6301 23.7399 42.6426 23.9963L42.637 33.2558ZM61.3934 33.2558C61.3814 33.5119 61.4785 33.7611 61.661 33.9425C61.8435 34.1239 62.0945 34.2208 62.3526 34.2094H64.6123C64.8706 34.2208 65.1217 34.124 65.3045 33.9426C65.4873 33.7613 65.5849 33.5121 65.5734 33.2558V23.9963C65.5854 23.7397 65.4881 23.49 65.3052 23.3083C65.1224 23.1265 64.8709 23.0294 64.6123 23.0408H62.3583C62.0999 23.0294 61.8485 23.1265 61.666 23.3083C61.4834 23.4902 61.3865 23.7399 61.399 23.9963L61.3934 33.2558ZM79.3725 21.5831H76.2085L74.4531 31.7399L72.5877 21.5831H69.4806L68.9118 35.6126H70.4948L71.0028 23.1536H71.1716L73.6588 35.3794H75.1261L77.6133 23.1536H77.782L78.2938 35.6126H79.8806L79.3725 21.5831Z" fill="white"/>
<path d="M51.2682 17.5919L56.8853 15.0132C51.9154 5.76142 42.2045 -0.013145 31.6379 2.24709e-05H31.1166V6.07338H31.5223C39.7288 6.05319 47.2957 10.4672 51.2682 17.5919Z" fill="url(#paint0_linear)"/>
<path d="M30.7355 53.4394C17.5754 53.4476 6.82395 43.0144 6.54028 29.9604H0C0.290047 46.4934 13.8919 59.8664 30.618 59.8664H31.1981V53.4394H30.7355Z" fill="url(#paint1_linear)"/>
<defs>
<linearGradient id="paint0_linear" x1="31.1166" y1="17.5909" x2="56.8853" y2="17.5909" gradientUnits="userSpaceOnUse">
<stop offset="0.16" stop-color="#23B7C5"/>
<stop offset="0.34" stop-color="#28BDC6"/>
<stop offset="0.6" stop-color="#4CC0BC"/>
<stop offset="0.91" stop-color="#6EC5B2"/>
<stop offset="1" stop-color="#73C6AF"/>
</linearGradient>
<linearGradient id="paint1_linear" x1="31.1981" y1="-93.5963" x2="0" y2="-93.5963" gradientUnits="userSpaceOnUse">
<stop offset="0.16" stop-color="#23B7C5"/>
<stop offset="0.34" stop-color="#28BDC6"/>
<stop offset="0.6" stop-color="#4CC0BC"/>
<stop offset="0.91" stop-color="#6EC5B2"/>
<stop offset="1" stop-color="#73C6AF"/>
</linearGradient>
</defs>
</svg>
