<svg width="20" height="24" viewBox="0 0 20 24" fill="none" xmlns="http://www.w3.org/2000/svg">
<path fill-rule="evenodd" clip-rule="evenodd" d="M13.68 3.79171C14.5434 2.76702 14.9766 1.65997 14.9766 0.474293V0.474278C14.9766 0.31702 14.9693 0.158502 14.9517 0C14.3502 0.0312 13.7107 0.213424 13.0346 0.542927C12.3571 0.87742 11.7983 1.29673 11.359 1.80102C10.4791 2.79702 9.98356 4.01517 9.98356 5.15341C9.98356 5.31073 9.99366 5.46044 10.0111 5.60268C11.3778 5.71376 12.638 5.00985 13.68 3.79171ZM18.2766 20.7675C18.7683 20.0665 19.1927 19.304 19.5512 18.4758C19.699 18.1245 19.838 17.7587 19.9698 17.3767C19.3624 17.1221 18.8166 16.7636 18.3278 16.2997C17.2493 15.3001 16.7005 14.0413 16.6844 12.5286C16.6668 10.5865 17.5493 9.07259 19.3332 7.99171C18.3366 6.57512 16.838 5.78883 14.8434 5.62785C14.1073 5.56537 13.2088 5.724 12.1441 6.10712C11.0183 6.52024 10.3542 6.72746 10.1583 6.72746C9.8962 6.72746 9.29839 6.55024 8.36737 6.20078C7.43371 5.85249 6.68239 5.67527 6.10946 5.67527C5.06239 5.69268 4.0901 5.96488 3.19024 6.49902C2.29039 7.03317 1.57141 7.76078 1.03098 8.68317C0.343317 9.83151 0 11.2019 0 12.7907C0 14.1777 0.254634 15.6104 0.762585 17.0899C1.23688 18.4597 1.84229 19.6611 2.57868 20.6972C3.26502 21.6675 3.83795 22.3523 4.296 22.7519C5.01366 23.4192 5.73263 23.7367 6.45395 23.706C6.92824 23.6899 7.54859 23.5275 8.31863 23.2158C9.08751 22.9055 9.80634 22.7519 10.4766 22.7519C11.1157 22.7519 11.8146 22.9055 12.5751 23.2158C13.3332 23.5275 13.9844 23.6811 14.5244 23.6811C15.2766 23.6636 15.979 23.3548 16.6346 22.7519C17.0576 22.3845 17.6063 21.7231 18.2766 20.7675Z" fill="white"/>
</svg>
