<svg width="18" height="12" viewBox="0 0 18 12" fill="none" xmlns="http://www.w3.org/2000/svg">
<path fill-rule="evenodd" clip-rule="evenodd" d="M6.86119 8.56942V3.43058L11.3223 6L6.86119 8.56942ZM16.7858 1.87771C16.5882 1.14348 16.0093 0.564745 15.2753 0.367046C13.9341 0 8.56929 0 8.56929 0C8.56929 0 3.20466 0 1.86345 0.353053C1.14348 0.550619 0.550518 1.14362 0.35292 1.87771C0 3.21875 0 6 0 6C0 6 0 8.79524 0.35292 10.1223C0.550619 10.8564 1.12939 11.4353 1.86358 11.633C3.21875 12 8.56942 12 8.56942 12C8.56942 12 13.9341 12 15.2753 11.647C16.0095 11.4494 16.5882 10.8705 16.7859 10.1365C17.1388 8.79524 17.1388 6.01413 17.1388 6.01413C17.1388 6.01413 17.153 3.21875 16.7858 1.87771Z" fill="#24509A"/>
</svg>
