<svg width="18" height="10" viewBox="0 0 18 10" fill="none" xmlns="http://www.w3.org/2000/svg">
<path fill-rule="evenodd" clip-rule="evenodd" d="M8.57623 9.95813H9.62401C9.62401 9.95813 9.9405 9.92339 10.1021 9.7492C10.2508 9.58928 10.2461 9.28897 10.2461 9.28897C10.2461 9.28897 10.2256 7.88305 10.8781 7.67602C11.5213 7.47208 12.3473 9.03482 13.2228 9.63569C13.8848 10.0904 14.3879 9.99073 14.3879 9.99073L16.7288 9.95813C16.7288 9.95813 17.9534 9.8827 17.3727 8.91988C17.3251 8.84111 17.0346 8.20764 15.6322 6.90596C14.1644 5.54359 14.361 5.76395 16.1291 3.40735C17.2059 1.97217 17.6364 1.09597 17.5019 0.720698C17.3737 0.36327 16.5817 0.457743 16.5817 0.457743L13.946 0.474163C13.946 0.474163 13.7506 0.447511 13.6057 0.534131C13.4641 0.619085 13.373 0.817075 13.373 0.817075C13.373 0.817075 12.9558 1.92767 12.3994 2.87216C11.2258 4.86515 10.7565 4.97033 10.5647 4.84658C10.1185 4.55817 10.2299 3.68792 10.2299 3.06968C10.2299 1.13833 10.5228 0.333048 9.65946 0.124588C9.37295 0.0553397 9.16211 0.00964988 8.42941 0.00227288C7.48896 -0.0074838 6.69296 0.00512849 6.24225 0.225963C5.94241 0.372789 5.7111 0.699995 5.85198 0.718794C6.02617 0.742115 6.42072 0.825166 6.6299 1.11001C6.89999 1.47744 6.89047 2.30271 6.89047 2.30271C6.89047 2.30271 7.04562 4.57625 6.52804 4.85872C6.17276 5.05243 5.6854 4.65692 4.63906 2.84884C4.10291 1.92267 3.69813 0.898936 3.69813 0.898936C3.69813 0.898936 3.62008 0.70761 3.48087 0.605283C3.31191 0.481302 3.07585 0.441799 3.07585 0.441799L0.571234 0.458219C0.571234 0.458219 0.195245 0.46869 0.0572236 0.632174C-0.0655678 0.777572 0.0474669 1.07836 0.0474669 1.07836C0.0474669 1.07836 2.00832 5.66591 4.22856 7.97776C6.26438 10.0973 8.57623 9.95813 8.57623 9.95813Z" fill="#24509A"/>
</svg>
