<svg width="32" height="16" viewBox="0 0 32 16" fill="none" xmlns="http://www.w3.org/2000/svg">
<rect width="32" height="16" rx="3" fill="#00306C"/>
<path fill-rule="evenodd" clip-rule="evenodd" d="M16.6568 7.787C16.6568 8.291 16.5698 8.7515 16.3958 9.1685C16.2218 9.5855 15.9803 9.9425 15.6713 10.2395C15.3623 10.5365 14.9948 10.766 14.5688 10.928C14.1428 11.09 13.6808 11.171 13.1828 11.171C12.6848 11.171 12.2243 11.09 11.8013 10.928C11.3783 10.766 11.0123 10.5365 10.7033 10.2395C10.3943 9.9425 10.1528 9.5855 9.97883 9.1685C9.80483 8.7515 9.71783 8.291 9.71783 7.787C9.71783 7.277 9.80483 6.8165 9.97883 6.4055C10.1528 5.9945 10.3943 5.645 10.7033 5.357C11.0123 5.069 11.3783 4.847 11.8013 4.691C12.2243 4.535 12.6848 4.457 13.1828 4.457C13.6808 4.457 14.1428 4.535 14.5688 4.691C14.9948 4.847 15.3623 5.069 15.6713 5.357C15.9803 5.645 16.2218 5.9945 16.3958 6.4055C16.5698 6.8165 16.6568 7.277 16.6568 7.787ZM8.68733 9.2405C8.89433 8.8355 8.99783 8.354 8.99783 7.796C8.99783 7.196 8.89283 6.692 8.68283 6.284C8.47283 5.876 8.19683 5.5505 7.85483 5.3075C7.51283 5.0645 7.12283 4.8905 6.68483 4.7855C6.24683 4.6805 5.80283 4.628 5.35283 4.628H3.04883V11H5.42483C5.86283 11 6.29483 10.9385 6.72083 10.8155C7.14683 10.6925 7.52933 10.5005 7.86833 10.2395C8.20733 9.9785 8.48033 9.6455 8.68733 9.2405ZM7.22033 6.9005C7.33733 7.1375 7.39583 7.436 7.39583 7.796C7.39583 8.15 7.33733 8.447 7.22033 8.687C7.10333 8.927 6.94733 9.119 6.75233 9.263C6.55733 9.407 6.33233 9.5105 6.07733 9.5735C5.82233 9.6365 5.55683 9.668 5.28083 9.668H4.55183V5.942H5.31683C5.58083 5.942 5.83733 5.972 6.08633 6.032C6.33533 6.092 6.55733 6.1925 6.75233 6.3335C6.94733 6.4745 7.10333 6.6635 7.22033 6.9005ZM14.8748 7.013C14.9648 7.253 15.0098 7.511 15.0098 7.787C15.0098 8.075 14.9648 8.3405 14.8748 8.5835C14.7848 8.8265 14.6588 9.035 14.4968 9.209C14.3348 9.383 14.1428 9.5195 13.9208 9.6185C13.6988 9.7175 13.4528 9.767 13.1828 9.767C12.9128 9.767 12.6668 9.7175 12.4448 9.6185C12.2228 9.5195 12.0323 9.383 11.8733 9.209C11.7143 9.035 11.5898 8.8265 11.4998 8.5835C11.4098 8.3405 11.3648 8.075 11.3648 7.787C11.3648 7.511 11.4083 7.253 11.4953 7.013C11.5823 6.773 11.7068 6.5675 11.8688 6.3965C12.0308 6.2255 12.2228 6.0905 12.4448 5.9915C12.6668 5.8925 12.9128 5.843 13.1828 5.843C13.4528 5.843 13.7003 5.8925 13.9253 5.9915C14.1503 6.0905 14.3423 6.2255 14.5013 6.3965C14.6603 6.5675 14.7848 6.773 14.8748 7.013ZM23.2808 10.118C22.9988 10.442 22.6508 10.6985 22.2368 10.8875C21.8228 11.0765 21.3458 11.171 20.8058 11.171C20.3138 11.171 19.8593 11.09 19.4423 10.928C19.0253 10.766 18.6638 10.5365 18.3578 10.2395C18.0518 9.9425 17.8118 9.587 17.6378 9.173C17.4638 8.759 17.3768 8.303 17.3768 7.805C17.3768 7.295 17.4653 6.833 17.6423 6.419C17.8193 6.005 18.0638 5.6525 18.3758 5.3615C18.6878 5.0705 19.0538 4.847 19.4738 4.691C19.8938 4.535 20.3468 4.457 20.8328 4.457C21.2828 4.457 21.7253 4.5365 22.1603 4.6955C22.5953 4.8545 22.9478 5.087 23.2178 5.393L22.1738 6.437C22.0298 6.239 21.8408 6.092 21.6068 5.996C21.3728 5.9 21.1328 5.852 20.8868 5.852C20.6168 5.852 20.3693 5.9015 20.1443 6.0005C19.9193 6.0995 19.7258 6.236 19.5638 6.41C19.4018 6.584 19.2758 6.7895 19.1858 7.0265C19.0958 7.2635 19.0508 7.523 19.0508 7.805C19.0508 8.093 19.0958 8.357 19.1858 8.597C19.2758 8.837 19.4003 9.0425 19.5593 9.2135C19.7183 9.3845 19.9088 9.518 20.1308 9.614C20.3528 9.71 20.5958 9.758 20.8598 9.758C21.1658 9.758 21.4328 9.698 21.6608 9.578C21.8888 9.458 22.0718 9.302 22.2098 9.11L23.2808 10.118ZM26.3858 8.75L27.7808 11H29.6798L27.3758 7.634L29.3918 4.628H27.6008L26.4308 6.608L25.2428 4.628H23.3888L25.4408 7.634L23.2088 11H25.0448L26.3858 8.75Z" fill="white"/>
</svg>
