<svg width="24" height="24" viewBox="0 0 24 24" fill="none" xmlns="http://www.w3.org/2000/svg">
<path fill-rule="evenodd" clip-rule="evenodd" d="M14.9954 5H17.9954C18.5477 5 18.9954 5.44772 18.9954 6V11C18.9954 11.5523 18.5477 12 17.9954 12H14.9954V20H16.9954C17.5477 20 17.9954 20.4477 17.9954 21C17.9954 21.5523 17.5477 22 16.9954 22H10.9954C10.4431 22 9.9954 21.5523 9.9954 21C9.9954 20.4477 10.4431 20 10.9954 20H12.9954V12H7.9954C7.69113 11.9986 7.40405 11.8587 7.2154 11.62L5.2154 9.12C4.9282 8.75656 4.9282 8.24344 5.2154 7.88L7.2154 5.38C7.40405 5.14126 7.69113 5.0014 7.9954 5H12.9954V3C12.9954 2.44772 13.4431 2 13.9954 2C14.5477 2 14.9954 2.44772 14.9954 3V5ZM8.4754 10H16.9954V7H8.4754L7.2754 8.5L8.4754 10Z" fill="black"/>
<mask id="mask0" mask-type="alpha" maskUnits="userSpaceOnUse" x="5" y="2" width="14" height="20">
<path fill-rule="evenodd" clip-rule="evenodd" d="M14.9954 5H17.9954C18.5477 5 18.9954 5.44772 18.9954 6V11C18.9954 11.5523 18.5477 12 17.9954 12H14.9954V20H16.9954C17.5477 20 17.9954 20.4477 17.9954 21C17.9954 21.5523 17.5477 22 16.9954 22H10.9954C10.4431 22 9.9954 21.5523 9.9954 21C9.9954 20.4477 10.4431 20 10.9954 20H12.9954V12H7.9954C7.69113 11.9986 7.40405 11.8587 7.2154 11.62L5.2154 9.12C4.9282 8.75656 4.9282 8.24344 5.2154 7.88L7.2154 5.38C7.40405 5.14126 7.69113 5.0014 7.9954 5H12.9954V3C12.9954 2.44772 13.4431 2 13.9954 2C14.5477 2 14.9954 2.44772 14.9954 3V5ZM8.4754 10H16.9954V7H8.4754L7.2754 8.5L8.4754 10Z" fill="white"/>
</mask>
<g mask="url(#mask0)">
<rect width="24" height="24" fill="#245099"/>
</g>
</svg>
