<svg width="21" height="23" viewBox="0 0 21 23" fill="none" xmlns="http://www.w3.org/2000/svg">
<path fill-rule="evenodd" clip-rule="evenodd" d="M14.1838 0.304204L13.2024 2.1146C14.1881 2.62209 14.9761 3.32887 15.5659 4.23648C16.1556 5.1448 16.4506 6.13721 16.4506 7.21532H3.66546C3.66546 6.13696 3.96044 5.14459 4.55016 4.23648C5.13987 3.32887 5.93245 2.62209 6.9276 2.1146L5.94617 0.304204C5.8815 0.184349 5.90442 0.0927312 6.01512 0.0278129C6.13473 -0.027665 6.22685 0.000323466 6.29151 0.110531L7.28666 1.9354C8.16196 1.5483 9.08816 1.35433 10.065 1.35433C11.0416 1.35433 11.9677 1.54826 12.8433 1.9354L13.8384 0.110531C13.9028 0.000323466 13.9949 -0.0279145 14.1148 0.0278129C14.2253 0.0924401 14.2482 0.184349 14.1838 0.304204ZM7.14822 4.90717C7.29556 4.90717 7.42232 4.85423 7.52846 4.74785C7.63409 4.64196 7.68724 4.51545 7.68753 4.36786C7.68753 4.22051 7.63434 4.09425 7.52846 3.98787C7.42232 3.88199 7.29556 3.82905 7.14822 3.82905C7.00087 3.82905 6.8764 3.88199 6.7751 3.98787C6.67379 4.094 6.62313 4.22051 6.62313 4.36786C6.62313 4.5157 6.67379 4.64196 6.7751 4.74785C6.8764 4.85423 7.00058 4.90717 7.14822 4.90717ZM13.3543 4.74785C13.2528 4.85423 13.1283 4.90717 12.9812 4.90717C12.8335 4.90717 12.7068 4.85423 12.6009 4.74785C12.4948 4.64196 12.4419 4.5157 12.4419 4.36786C12.4419 4.22051 12.4948 4.094 12.6009 3.98787C12.7068 3.88199 12.8335 3.82905 12.9812 3.82905C13.1286 3.82905 13.2527 3.88199 13.3543 3.98787C13.4557 4.09425 13.5063 4.22051 13.5063 4.36786C13.5063 4.51545 13.4557 4.64196 13.3543 4.74785ZM0.414629 7.86463C0.69102 7.58824 1.02726 7.45004 1.42355 7.45004C1.81064 7.45004 2.14251 7.58824 2.41895 7.86463C2.69538 8.14102 2.83357 8.47264 2.83357 8.85978V14.8032C2.83357 15.2 2.69742 15.536 2.42585 15.8124C2.15374 16.0888 1.81954 16.227 1.42355 16.227C1.02726 16.227 0.69102 16.0888 0.414629 15.8124C0.138196 15.536 0 15.2 0 14.8032V8.85978C0 8.47268 0.138237 8.14102 0.414629 7.86463ZM3.72036 16.918C3.72036 17.3423 3.8677 17.7014 4.16243 17.9962C4.45742 18.2909 4.81657 18.4383 5.24055 18.4383H6.26344L6.27746 21.5762C6.27746 21.9725 6.41565 22.3089 6.69205 22.5854C6.96844 22.8618 7.30035 23 7.6872 23C8.08323 23 8.41968 22.8618 8.69611 22.5854C8.97255 22.3089 9.11074 21.9725 9.11074 21.5762V18.4385H11.0181V21.5762C11.0181 21.9725 11.1563 22.3089 11.4327 22.5854C11.7091 22.8618 12.0453 23 12.4416 23C12.8377 23 13.1741 22.8618 13.4505 22.5854C13.727 22.3089 13.8651 21.9725 13.8651 21.5762V18.4385H14.9018C15.3164 18.4385 15.6709 18.2912 15.9662 17.9964C16.2609 17.7017 16.4083 17.3425 16.4083 16.9183V7.71242H3.72036V16.918ZM17.7046 7.85777C17.981 7.5862 18.3126 7.45004 18.6998 7.45004C19.0958 7.45004 19.4323 7.5862 19.7087 7.85777C19.9851 8.12984 20.1233 8.46399 20.1233 8.85978V14.8032C20.1233 15.2 19.9851 15.536 19.7087 15.8124C19.4323 16.0888 19.0958 16.227 18.6998 16.227C18.3129 16.227 17.981 16.0888 17.7046 15.8124C17.4282 15.536 17.29 15.2 17.29 14.8032V8.85978C17.29 8.46403 17.4282 8.12984 17.7046 7.85777Z" fill="white"/>
</svg>
