<svg width="24" height="22" viewBox="0 0 24 22" fill="none" xmlns="http://www.w3.org/2000/svg">
<path d="M20.832 4.79999H19.2V2.4C19.226 1.79079 19.0095 1.1961 18.5979 0.746234C18.1863 0.296371 17.6131 0.0280259 17.004 0H6.99601C6.38689 0.0280259 5.81372 0.296371 5.4021 0.746234C4.99047 1.1961 4.77396 1.79079 4.80001 2.4V4.79999H3.16802C2.32353 4.80633 1.51597 5.14708 0.922198 5.7476C0.328422 6.34812 -0.00317575 7.15948 2.29282e-05 8.00398V15.996C-0.00317575 16.8405 0.328422 17.6518 0.922198 18.2523C1.51597 18.8529 2.32353 19.1936 3.16802 19.2H4.20001C4.20001 19.8365 4.45287 20.4469 4.90296 20.897C5.35304 21.3471 5.96349 21.6 6.60001 21.6H17.4C18.0365 21.6 18.647 21.3471 19.097 20.897C19.5471 20.4469 19.8 19.8365 19.8 19.2H20.832C21.6765 19.1936 22.484 18.8529 23.0778 18.2523C23.6716 17.6518 24.0032 16.8405 24 15.996V8.00398C24.0032 7.15948 23.6716 6.34812 23.0778 5.7476C22.484 5.14708 21.6765 4.80633 20.832 4.79999ZM7.20001 2.4H16.8V4.79999H7.20001V2.4ZM6.60001 19.2V14.4H17.4V19.2H6.60001ZM21.6 15.996C21.6032 16.204 21.5245 16.4049 21.3808 16.5554C21.2371 16.7058 21.0399 16.7937 20.832 16.8H19.8V14.4C19.8 13.7635 19.5471 13.153 19.097 12.7029C18.647 12.2528 18.0365 12 17.4 12H6.60001C5.96349 12 5.35304 12.2528 4.90296 12.7029C4.45287 13.153 4.20001 13.7635 4.20001 14.4V16.8H3.16802C2.96006 16.7937 2.76293 16.7058 2.61922 16.5554C2.47551 16.4049 2.39677 16.204 2.40002 15.996V8.00398C2.39677 7.79596 2.47551 7.59501 2.61922 7.44456C2.76293 7.29412 2.96006 7.20626 3.16802 7.19999H20.832C21.0399 7.20626 21.2371 7.29412 21.3808 7.44456C21.5245 7.59501 21.6032 7.79596 21.6 8.00398V15.996Z" fill="#24509A"/>
</svg>
