<svg width="21" height="20" viewBox="0 0 21 20" fill="none" xmlns="http://www.w3.org/2000/svg">
<path fill-rule="evenodd" clip-rule="evenodd" d="M16.0209 14.6309L19.7309 18.3109C20.1056 18.6985 20.1056 19.3133 19.7309 19.7009C19.5431 19.8902 19.2876 19.9967 19.0209 19.9967C18.7543 19.9967 18.4987 19.8902 18.3109 19.7009L14.6309 16.0209C10.9026 19.0111 5.48719 18.5657 2.29756 15.0064C-0.892069 11.4472 -0.743441 6.01556 2.63606 2.63606C6.01556 -0.743441 11.4472 -0.892069 15.0064 2.29756C18.5657 5.48719 19.0111 10.9026 16.0209 14.6309ZM2.02092 9.02092C2.02092 12.8869 5.15492 16.0209 9.02092 16.0209C10.8774 16.0209 12.6579 15.2834 13.9707 13.9707C15.2834 12.6579 16.0209 10.8774 16.0209 9.02092C16.0209 5.15492 12.8869 2.02092 9.02092 2.02092C5.15492 2.02092 2.02092 5.15492 2.02092 9.02092Z" fill="#DCE3EF"/>
</svg>
