<svg width="45" height="14" viewBox="0 0 45 14" fill="none" xmlns="http://www.w3.org/2000/svg">
<path fill-rule="evenodd" clip-rule="evenodd" d="M37.2929 13.7071C36.9024 13.3166 36.9024 12.6834 37.2929 12.2929L41.5858 8H1C0.447715 8 0 7.55228 0 7C0 6.44772 0.447715 6 1 6H41.5858L37.2929 1.70711C36.9024 1.31658 36.9024 0.683418 37.2929 0.292893C37.6834 -0.0976311 38.3166 -0.0976311 38.7071 0.292893L44.7071 6.29289C44.8902 6.47595 44.9874 6.71232 44.9989 6.95203C44.9996 6.96801 45 6.984 45 7C45 7.13559 44.973 7.26488 44.9241 7.38278C44.8753 7.50073 44.803 7.61123 44.7071 7.70711L38.7071 13.7071C38.3166 14.0976 37.6834 14.0976 37.2929 13.7071Z" fill="white"/>
</svg>
