<svg width="32" height="16" viewBox="0 0 32 16" fill="none" xmlns="http://www.w3.org/2000/svg">
<rect width="32" height="16" rx="3" fill="#DA0000"/>
<path fill-rule="evenodd" clip-rule="evenodd" d="M12.5351 6.58999C12.5351 6.96199 12.4661 7.27549 12.3281 7.53049C12.1901 7.78549 12.0041 7.99099 11.7701 8.14699C11.5361 8.30299 11.2661 8.41699 10.9601 8.48899C10.6541 8.56099 10.3361 8.59699 10.0061 8.59699H9.24115V11H7.70215V4.62799H10.0421C10.3902 4.62799 10.7156 4.66249 11.0186 4.73149C11.3217 4.80049 11.5856 4.91149 11.8106 5.06449C12.0356 5.21749 12.2126 5.41849 12.3416 5.66749C12.4706 5.91649 12.5351 6.22399 12.5351 6.58999ZM10.9961 6.59899C10.9961 6.44899 10.9661 6.32599 10.9061 6.22999C10.8461 6.13399 10.7651 6.05899 10.6631 6.00499C10.5611 5.95099 10.4456 5.91499 10.3166 5.89699C10.1876 5.87899 10.0541 5.86999 9.91615 5.86999H9.24115V7.37299H9.88915C10.0331 7.37299 10.1711 7.36099 10.3031 7.33699C10.4351 7.31299 10.5536 7.27099 10.6586 7.21099C10.7636 7.15099 10.8461 7.07149 10.9061 6.97249C10.9661 6.87349 10.9961 6.74899 10.9961 6.59899ZM19.1006 9.24049C19.3076 8.83549 19.4111 8.35399 19.4111 7.79599C19.4111 7.19599 19.3061 6.69199 19.0961 6.28399C18.8861 5.87599 18.6102 5.55049 18.2681 5.30749C17.9261 5.06449 17.5362 4.89049 17.0981 4.78549C16.6601 4.68049 16.2162 4.62799 15.7661 4.62799H13.4621V11H15.8381C16.2762 11 16.7081 10.9385 17.1341 10.8155C17.5602 10.6925 17.9426 10.5005 18.2816 10.2395C18.6207 9.97849 18.8936 9.64549 19.1006 9.24049ZM17.8091 7.79599C17.8091 7.43599 17.7506 7.13749 17.6336 6.90049C17.5166 6.66349 17.3606 6.47449 17.1656 6.33349C16.9706 6.19249 16.7486 6.09199 16.4996 6.03199C16.2506 5.97199 15.9942 5.94199 15.7301 5.94199H14.9651V9.66799H15.6941C15.9701 9.66799 16.2356 9.63649 16.4906 9.57349C16.7456 9.51049 16.9706 9.40699 17.1656 9.26299C17.3606 9.11899 17.5166 8.92699 17.6336 8.68699C17.7506 8.44699 17.8091 8.14999 17.8091 7.79599ZM24.4151 7.25599H21.9491V5.94199H24.6221V4.62799H20.4281V11H21.9491V8.52499H24.4151V7.25599Z" fill="white"/>
</svg>
