<svg width="24" height="24" viewBox="0 0 24 24" fill="none" xmlns="http://www.w3.org/2000/svg">
<path fill-rule="evenodd" clip-rule="evenodd" d="M16 2H8C6.34315 2 5 3.34315 5 5V19C5 20.6569 6.34315 22 8 22H16C17.6569 22 19 20.6569 19 19V5C19 3.34315 17.6569 2 16 2ZM12.71 16.29L12.56 16.17C12.5043 16.1322 12.4437 16.1019 12.38 16.08L12.2 16C11.8706 15.9311 11.5286 16.0326 11.29 16.27C11.2017 16.3672 11.1306 16.4788 11.08 16.6C10.9253 16.9726 11.0095 17.4016 11.2937 17.688C11.5779 17.9743 12.0063 18.0619 12.38 17.91C12.4995 17.852 12.6105 17.778 12.71 17.69C12.9937 17.4024 13.0766 16.9724 12.92 16.6C12.8701 16.4844 12.7989 16.3792 12.71 16.29ZM16 20C16.5523 20 17 19.5523 17 19V5C17 4.44772 16.5523 4 16 4H8C7.44772 4 7 4.44772 7 5V19C7 19.5523 7.44772 20 8 20H16Z" fill="black"/>
<mask id="mask0" mask-type="alpha" maskUnits="userSpaceOnUse" x="5" y="2" width="14" height="20">
<path fill-rule="evenodd" clip-rule="evenodd" d="M16 2H8C6.34315 2 5 3.34315 5 5V19C5 20.6569 6.34315 22 8 22H16C17.6569 22 19 20.6569 19 19V5C19 3.34315 17.6569 2 16 2ZM12.71 16.29L12.56 16.17C12.5043 16.1322 12.4437 16.1019 12.38 16.08L12.2 16C11.8706 15.9311 11.5286 16.0326 11.29 16.27C11.2017 16.3672 11.1306 16.4788 11.08 16.6C10.9253 16.9726 11.0095 17.4016 11.2937 17.688C11.5779 17.9743 12.0063 18.0619 12.38 17.91C12.4995 17.852 12.6105 17.778 12.71 17.69C12.9937 17.4024 13.0766 16.9724 12.92 16.6C12.8701 16.4844 12.7989 16.3792 12.71 16.29ZM16 20C16.5523 20 17 19.5523 17 19V5C17 4.44772 16.5523 4 16 4H8C7.44772 4 7 4.44772 7 5V19C7 19.5523 7.44772 20 8 20H16Z" fill="white"/>
</mask>
<g mask="url(#mask0)">
<rect width="24" height="24" fill="#245099"/>
</g>
</svg>
