<svg width="20" height="20" viewBox="0 0 20 20" fill="none" xmlns="http://www.w3.org/2000/svg">
<path fill-rule="evenodd" clip-rule="evenodd" d="M19.7713 4.83824L15.1619 0.228867C14.8567 -0.0762891 14.362 -0.0762891 14.057 0.228867L10 4.28574C5.65551 -0.0477734 5.92195 0.169062 5.72434 0.0757031C5.61754 0.0250391 5.50094 7.45058e-09 5.39062 7.45058e-09C2.42812 7.45058e-09 0.000156257 2.4066 0.000156257 5.39414C0.00121094 5.60762 0.0889453 5.8032 0.228867 5.94316L4.28574 10L0.228867 14.057C-0.0762891 14.362 -0.0762891 14.8567 0.228867 15.1619L4.83824 19.7713C5.14328 20.0763 5.63797 20.0763 5.94316 19.7713L10 15.7143C13.5318 19.2453 13.3359 19.1078 13.6095 19.1884C13.818 19.2497 13.668 19.2067 18.439 19.2204C18.8705 19.2204 19.2203 18.8705 19.2203 18.4392C19.2189 13.4216 19.2366 13.767 19.1864 13.6021C19.0845 13.2672 19.1132 13.4457 15.7143 10L19.7711 5.94316C20.0763 5.63797 20.0763 5.14328 19.7713 4.83824ZM7.69531 15.8092L5.94301 14.057C5.63797 13.752 5.14328 13.752 4.83809 14.057C4.53309 14.362 4.53309 14.8567 4.83809 15.1619L6.59043 16.9141L5.39062 18.1139L1.88613 14.6094L5.39062 11.1049L8.89512 14.6094L7.69531 15.8092ZM17.6578 17.6579H14.6912C15.0003 16.1727 16.1727 15.0005 17.6578 14.6913V17.6579ZM16.806 13.3016C15.1448 13.8307 13.8307 15.145 13.3016 16.806C12.6325 16.1369 2.31188 5.81633 1.57516 5.0798C1.72578 3.21641 3.21625 1.72578 5.07965 1.57516C5.22887 1.72441 13.5835 10.0789 14.0566 10.5521C14.0567 10.5522 14.0568 10.5524 14.057 10.5525C14.057 10.5525 14.0571 10.5527 14.0573 10.5528L16.806 13.3016ZM16.9141 6.59043L15.1619 4.83824C14.8567 4.53324 14.362 4.53324 14.057 4.83824C13.7518 5.14328 13.7518 5.63797 14.057 5.94316L15.8092 7.69531L14.6094 8.89512L11.1049 5.39062L14.6094 1.88613L18.1139 5.39062L16.9141 6.59043Z" fill="#111721"/>
<mask id="mask0" mask-type="alpha" maskUnits="userSpaceOnUse" x="0" y="0" width="20" height="20">
<path fill-rule="evenodd" clip-rule="evenodd" d="M19.7713 4.83824L15.1619 0.228867C14.8567 -0.0762891 14.362 -0.0762891 14.057 0.228867L10 4.28574C5.65551 -0.0477734 5.92195 0.169062 5.72434 0.0757031C5.61754 0.0250391 5.50094 7.45058e-09 5.39062 7.45058e-09C2.42812 7.45058e-09 0.000156257 2.4066 0.000156257 5.39414C0.00121094 5.60762 0.0889453 5.8032 0.228867 5.94316L4.28574 10L0.228867 14.057C-0.0762891 14.362 -0.0762891 14.8567 0.228867 15.1619L4.83824 19.7713C5.14328 20.0763 5.63797 20.0763 5.94316 19.7713L10 15.7143C13.5318 19.2453 13.3359 19.1078 13.6095 19.1884C13.818 19.2497 13.668 19.2067 18.439 19.2204C18.8705 19.2204 19.2203 18.8705 19.2203 18.4392C19.2189 13.4216 19.2366 13.767 19.1864 13.6021C19.0845 13.2672 19.1132 13.4457 15.7143 10L19.7711 5.94316C20.0763 5.63797 20.0763 5.14328 19.7713 4.83824ZM7.69531 15.8092L5.94301 14.057C5.63797 13.752 5.14328 13.752 4.83809 14.057C4.53309 14.362 4.53309 14.8567 4.83809 15.1619L6.59043 16.9141L5.39062 18.1139L1.88613 14.6094L5.39062 11.1049L8.89512 14.6094L7.69531 15.8092ZM17.6578 17.6579H14.6912C15.0003 16.1727 16.1727 15.0005 17.6578 14.6913V17.6579ZM16.806 13.3016C15.1448 13.8307 13.8307 15.145 13.3016 16.806C12.6325 16.1369 2.31188 5.81633 1.57516 5.0798C1.72578 3.21641 3.21625 1.72578 5.07965 1.57516C5.22887 1.72441 13.5835 10.0789 14.0566 10.5521C14.0567 10.5522 14.0568 10.5524 14.057 10.5525C14.057 10.5525 14.0571 10.5527 14.0573 10.5528L16.806 13.3016ZM16.9141 6.59043L15.1619 4.83824C14.8567 4.53324 14.362 4.53324 14.057 4.83824C13.7518 5.14328 13.7518 5.63797 14.057 5.94316L15.8092 7.69531L14.6094 8.89512L11.1049 5.39062L14.6094 1.88613L18.1139 5.39062L16.9141 6.59043Z" fill="white"/>
</mask>
<g mask="url(#mask0)">
<rect x="-2" y="-3" width="24" height="24" fill="white"/>
</g>
</svg>
