<svg width="56" height="56" viewBox="0 0 56 56" fill="none" xmlns="http://www.w3.org/2000/svg">
<circle cx="28" cy="28" r="28" fill="#35A9AD"/>
<path fill-rule="evenodd" clip-rule="evenodd" d="M25 21H21V29H25V21ZM21 20C20.7348 20 20.4804 20.1054 20.2929 20.2929C20.1054 20.4804 20 20.7348 20 21V29C20 29.2652 20.1054 29.5196 20.2929 29.7071C20.4804 29.8946 20.7348 30 21 30H25C25.2652 30 25.5196 29.8946 25.7071 29.7071C25.8946 29.5196 26 29.2652 26 29V21C26 20.7348 25.8946 20.4804 25.7071 20.2929C25.5196 20.1054 25.2652 20 25 20H21ZM34 22H29V27H34V22ZM29 21C28.7348 21 28.4804 21.1054 28.2929 21.2929C28.1054 21.4804 28 21.7348 28 22V27C28 27.2652 28.1054 27.5196 28.2929 27.7071C28.4804 27.8946 28.7348 28 29 28H34C34.2652 28 34.5196 27.8946 34.7071 27.7071C34.8946 27.5196 35 27.2652 35 27V22C35 21.7348 34.8946 21.4804 34.7071 21.2929C34.5196 21.1054 34.2652 21 34 21H29ZM25 33H23V35H25V33ZM23 32C22.7348 32 22.4804 32.1054 22.2929 32.2929C22.1054 32.4804 22 32.7348 22 33V35C22 35.2652 22.1054 35.5196 22.2929 35.7071C22.4804 35.8946 22.7348 36 23 36H25C25.2652 36 25.5196 35.8946 25.7071 35.7071C25.8946 35.5196 26 35.2652 26 35V33C26 32.7348 25.8946 32.4804 25.7071 32.2929C25.5196 32.1054 25.2652 32 25 32H23ZM35 31H29V33H35V31ZM29 30C28.7348 30 28.4804 30.1054 28.2929 30.2929C28.1054 30.4804 28 30.7348 28 31V33C28 33.2652 28.1054 33.5196 28.2929 33.7071C28.4804 33.8946 28.7348 34 29 34H35C35.2652 34 35.5196 33.8946 35.7071 33.7071C35.8946 33.5196 36 33.2652 36 33V31C36 30.7348 35.8946 30.4804 35.7071 30.2929C35.5196 30.1054 35.2652 30 35 30H29Z" fill="white"/>
</svg>
