<svg width="56" height="56" viewBox="0 0 56 56" fill="none" xmlns="http://www.w3.org/2000/svg">
<circle cx="28" cy="28" r="28" fill="#35A9AD"/>
<path d="M23 33H23.01M23 37C21.9391 37 20.9217 36.5786 20.1716 35.8284C19.4214 35.0783 19 34.0609 19 33V21C19 20.4696 19.2107 19.9609 19.5858 19.5858C19.9609 19.2107 20.4696 19 21 19H25C25.5304 19 26.0391 19.2107 26.4142 19.5858C26.7893 19.9609 27 20.4696 27 21V33C27 34.0609 26.5786 35.0783 25.8284 35.8284C25.0783 36.5786 24.0609 37 23 37V37ZM23 37H35C35.5304 37 36.0391 36.7893 36.4142 36.4142C36.7893 36.0391 37 35.5304 37 35V31C37 30.4696 36.7893 29.9609 36.4142 29.5858C36.0391 29.2107 35.5304 29 35 29H32.657L23 37ZM27 23.343L28.657 21.686C29.0321 21.3111 29.5407 21.1004 30.071 21.1004C30.6013 21.1004 31.1099 21.3111 31.485 21.686L34.314 24.515C34.6889 24.8901 34.8996 25.3987 34.8996 25.929C34.8996 26.4593 34.6889 26.9679 34.314 27.343L25.828 35.828L27 23.343Z" stroke="white" stroke-width="2" stroke-linecap="round" stroke-linejoin="round"/>
</svg>
