<svg width="56" height="56" viewBox="0 0 56 56" fill="none" xmlns="http://www.w3.org/2000/svg">
<circle cx="28" cy="28" r="28" fill="#35A9AD"/>
<path d="M24 23H22C21.4696 23 20.9609 23.2107 20.5858 23.5858C20.2107 23.9609 20 24.4696 20 25V35C20 35.5304 20.2107 36.0391 20.5858 36.4142C20.9609 36.7893 21.4696 37 22 37H30C30.5304 37 31.0391 36.7893 31.4142 36.4142C31.7893 36.0391 32 35.5304 32 35V33M24 23V31C24 31.5304 24.2107 32.0391 24.5858 32.4142C24.9609 32.7893 25.4696 33 26 33H32L24 23ZM24 23V21C24 20.4696 24.2107 19.9609 24.5858 19.5858C24.9609 19.2107 25.4696 19 26 19H30.586C30.8512 19.0001 31.1055 19.1055 31.293 19.293L35.707 23.707C35.8946 23.8945 35.9999 24.1488 36 24.414V31C36 31.5304 35.7893 32.0391 35.4142 32.4142C35.0391 32.7893 34.5304 33 34 33H32L24 23Z" stroke="white" stroke-width="2" stroke-linecap="round" stroke-linejoin="round"/>
</svg>
