<svg width="8" height="12" viewBox="0 0 8 12" fill="none" xmlns="http://www.w3.org/2000/svg">
<path d="M5.42545 1.01043L1.18545 5.30043C0.996134 5.48819 0.889648 5.74379 0.889648 6.01043C0.889648 6.27706 0.996134 6.53266 1.18545 6.72043L5.42545 10.9604C5.61321 11.1497 5.86881 11.2562 6.13545 11.2562C6.40208 11.2562 6.65768 11.1497 6.84545 10.9604C7.23317 10.5704 7.23317 9.94046 6.84545 9.55043L3.30545 6.01043L6.84545 2.47043C7.03019 2.28417 7.13434 2.03277 7.13545 1.77043C7.13698 1.50462 7.03263 1.24915 6.84545 1.06043C6.66443 0.864352 6.41256 0.748759 6.14587 0.739368C5.87918 0.729978 5.6198 0.82757 5.42545 1.01043Z" fill="black" fill-opacity="0.4"/>
</svg>
