<svg width="64" height="41" viewBox="0 0 64 41" fill="none" xmlns="http://www.w3.org/2000/svg">
<circle cx="41" cy="20.1412" r="20" fill="white"/>
<path fill-rule="evenodd" clip-rule="evenodd" d="M37.2929 26.8483C36.9024 26.4578 36.9024 25.8247 37.2929 25.4341L41.5858 21.1412H1C0.447715 21.1412 0 20.6935 0 20.1412C0 19.589 0.447715 19.1412 1 19.1412H41.5858L37.2929 14.8483C36.9024 14.4578 36.9024 13.8247 37.2929 13.4341C37.6834 13.0436 38.3166 13.0436 38.7071 13.4341L44.7071 19.4341C44.8902 19.6172 44.9874 19.8536 44.9989 20.0933C44.9996 20.1092 45 20.1252 45 20.1412C45 20.2768 44.973 20.4061 44.9241 20.524C44.8753 20.642 44.803 20.7525 44.7071 20.8483L38.7071 26.8483C38.3166 27.2389 37.6834 27.2389 37.2929 26.8483Z" fill="#DCE3EF"/>
</svg>
