<svg width="41" height="64" viewBox="0 0 41 64" fill="none" xmlns="http://www.w3.org/2000/svg">
<circle cx="20.8586" cy="41" r="20" transform="rotate(90 20.8586 41)" fill="white"/>
<path fill-rule="evenodd" clip-rule="evenodd" d="M14.1518 37.2929C14.5423 36.9024 15.1755 36.9024 15.566 37.2929L19.8589 41.5858L19.8589 1C19.8589 0.447715 20.3066 -3.30121e-07 20.8589 -3.0598e-07C21.4112 -2.81839e-07 21.8589 0.447715 21.8589 1L21.8589 41.5858L26.1518 37.2929C26.5423 36.9024 27.1755 36.9024 27.566 37.2929C27.9565 37.6834 27.9565 38.3166 27.566 38.7071L21.566 44.7071C21.3829 44.8902 21.1466 44.9874 20.9069 44.9989C20.8909 44.9996 20.8749 45 20.8589 45C20.7233 45 20.594 44.973 20.4761 44.9241C20.3582 44.8753 20.2477 44.803 20.1518 44.7071L14.1518 38.7071C13.7613 38.3166 13.7613 37.6834 14.1518 37.2929Z" fill="#DCE3EF"/>
</svg>
