<svg width="20" height="20" viewBox="0 0 20 20" fill="none" xmlns="http://www.w3.org/2000/svg">
<path fill-rule="evenodd" clip-rule="evenodd" d="M14.3731 0C18.4931 0 20 1.50695 20 5.62695V14.3731C20 18.4931 18.4903 20 14.3703 20H5.62695C1.50695 20 0 18.4931 0 14.3731V5.62695C0 1.50695 1.50695 0 5.62695 0H14.3731ZM7.40438 10H6.858V11.6917C6.858 12.1724 6.64075 12.4291 6.24592 12.4291C5.84893 12.4291 5.63038 12.1652 5.63038 11.6715V10.0017H5.084V11.6917C5.084 12.5234 5.50484 13 6.23855 13C6.97942 13 7.40438 12.5143 7.40438 11.6674V10ZM12.5614 10H12.1156L11.5042 12.0324L10.9092 10.0014H10.3275L11.2663 12.9555H11.7184L12.3309 11.0152L12.943 12.9555H13.3991L14.3356 10.0014H13.769L13.1728 12.0324L12.5614 10ZM2.54638 10.0002H2V12.9557H2.54638V11.7555H3.78028V12.9557H4.32645V10.0002H3.78028V11.1924H2.54638V10.0002ZM9.34966 10.0002H8.86767L7.68125 12.9541H8.23912L8.48413 12.3387H9.71651L9.95848 12.9541H10.5313L9.34966 10.0002ZM16.7576 10.0019H14.7761V12.9538H16.8097V12.4156H15.3152V11.6836H16.3088V11.1458H15.3152V10.5407H16.7576V10.0019ZM18 10H17.461V12.9519H18V10ZM9.09923 10.7482L9.51357 11.8057H8.6875L9.09923 10.7482ZM7.49447 4H7C7 5.65415 8.57016 7 10.5 7C12.4301 7 14 5.65415 14 4H13.5055C13.5055 5.42041 12.1574 6.57617 10.5 6.57617C8.84285 6.57617 7.49447 5.42041 7.49447 4Z" fill="white"/>
</svg>
