<svg width="8" height="12" viewBox="0 0 8 12" fill="none" xmlns="http://www.w3.org/2000/svg">
<path d="M2.60043 1.01043L6.84043 5.30043C7.02974 5.48819 7.13623 5.74379 7.13623 6.01043C7.13623 6.27706 7.02974 6.53266 6.84043 6.72043L2.60043 10.9604C2.41267 11.1497 2.15707 11.2562 1.89043 11.2562C1.6238 11.2562 1.3682 11.1497 1.18043 10.9604C0.792709 10.5704 0.792709 9.94046 1.18043 9.55043L4.72043 6.01043L1.18043 2.47043C0.995688 2.28417 0.891537 2.03277 0.890432 1.77043C0.888896 1.50462 0.993246 1.24915 1.18043 1.06043C1.36145 0.864352 1.61332 0.748759 1.88001 0.739368C2.1467 0.729978 2.40608 0.82757 2.60043 1.01043Z" fill="white"/>
</svg>
