<svg width="14" height="14" viewBox="0 0 14 14" fill="none" xmlns="http://www.w3.org/2000/svg">
<path fill-rule="evenodd" clip-rule="evenodd" d="M10.4502 0.0497967C12.7622 0.156504 13.8435 1.25203 13.9502 3.5498C13.9929 4.45325 14 4.71646 14 7C14 9.28354 13.9929 9.55386 13.9502 10.4502C13.8435 12.748 12.7622 13.8435 10.4502 13.9502C9.54675 14 9.27642 14 7 14C4.72358 14 4.45325 13.9929 3.5498 13.9502C1.23069 13.8435 0.156504 12.7409 0.0497967 10.4502C0 9.54675 0 9.27642 0 7C0 4.72358 0.00711382 4.45325 0.0497967 3.5498C0.156504 1.25203 1.2378 0.156504 3.5498 0.0497967C4.45325 0 4.72358 0 7 0C9.27642 0 9.54675 0.00711382 10.4502 0.0497967ZM2.61789 7C2.61789 9.42017 4.57983 11.3821 7 11.3821C8.16221 11.3821 9.27682 10.9204 10.0986 10.0986C10.9204 9.27682 11.3821 8.16221 11.3821 7C11.3821 4.57983 9.42017 2.61789 7 2.61789C4.57983 2.61789 2.61789 4.57983 2.61789 7ZM11.56 3.44309C11.145 3.44597 10.7693 3.19822 10.6085 2.81567C10.4477 2.43312 10.5336 1.99135 10.826 1.6969C11.1184 1.40245 11.5595 1.31349 11.9432 1.47162C12.3269 1.62975 12.5772 2.00373 12.5772 2.4187C12.5791 2.68973 12.4728 2.95031 12.2818 3.14263C12.0908 3.33494 11.831 3.4431 11.56 3.44309ZM7 9.84553C8.57154 9.84553 9.84553 8.57154 9.84553 7C9.84553 5.42846 8.57154 4.15447 7 4.15447C5.42846 4.15447 4.15447 5.42846 4.15447 7C4.15447 8.57154 5.42846 9.84553 7 9.84553Z" fill="#24509A"/>
</svg>
