<svg width="14" height="20" viewBox="0 0 14 20" fill="none" xmlns="http://www.w3.org/2000/svg">
<path fill-rule="evenodd" clip-rule="evenodd" d="M0 9V4C0 3.44772 0.447715 3 1 3H4V1C4 0.447715 4.44772 0 5 0C5.55228 0 6 0.447715 6 1V3H11C11.3043 3.0014 11.5914 3.14126 11.78 3.38L13.78 5.88C14.0725 6.24533 14.0725 6.76467 13.78 7.13L11.78 9.63C11.5894 9.86499 11.3026 10.001 11 10H6V18H8C8.55229 18 9 18.4477 9 19C9 19.5523 8.55229 20 8 20H2C1.44772 20 1 19.5523 1 19C1 18.4477 1.44772 18 2 18H4V10H1C0.447715 10 0 9.55229 0 9ZM10.52 5H2V8H10.52L11.72 6.5L10.52 5Z" fill="white"/>
</svg>
