<svg width="24" height="24" viewBox="0 0 24 24" fill="none" xmlns="http://www.w3.org/2000/svg">
<path fill-rule="evenodd" clip-rule="evenodd" d="M21.3 10.08C20.7312 9.39711 19.8888 9.00156 19 9.00004H14.44L15 7.57004C15.4728 6.2991 15.2916 4.87703 14.5152 3.76527C13.7388 2.65352 12.466 1.99374 11.11 2.00004C10.7171 2.00086 10.3611 2.23169 10.2 2.59004L7.35 9.00004H5C3.34315 9.00004 2 10.3432 2 12V19C2 20.6569 3.34315 22 5 22H17.73C19.1782 21.9996 20.4193 20.9646 20.68 19.54L21.95 12.54C22.109 11.6642 21.8709 10.763 21.3 10.08ZM7 20H5C4.44772 20 4 19.5523 4 19V12C4 11.4478 4.44772 11 5 11H7V20ZM18.73 19.18L20 12.18C20.0494 11.8861 19.965 11.5854 19.77 11.36C19.5796 11.1315 19.2974 10.9996 19 11H14.44C13.7851 10.9989 13.1722 10.6772 12.7993 10.1388C12.4264 9.60039 12.3408 8.91354 12.57 8.30005L13.1 6.87004C13.3108 6.31939 13.2816 5.70566 13.0194 5.17754C12.7572 4.64941 12.2861 4.25507 11.72 4.09004L9 10.21V20H17.73C18.219 20.008 18.642 19.6611 18.73 19.18Z" fill="black"/>
<mask id="mask0" mask-type="alpha" maskUnits="userSpaceOnUse" x="2" y="2" width="20" height="20">
<path fill-rule="evenodd" clip-rule="evenodd" d="M21.3 10.08C20.7312 9.39711 19.8888 9.00156 19 9.00004H14.44L15 7.57004C15.4728 6.2991 15.2916 4.87703 14.5152 3.76527C13.7388 2.65352 12.466 1.99374 11.11 2.00004C10.7171 2.00086 10.3611 2.23169 10.2 2.59004L7.35 9.00004H5C3.34315 9.00004 2 10.3432 2 12V19C2 20.6569 3.34315 22 5 22H17.73C19.1782 21.9996 20.4193 20.9646 20.68 19.54L21.95 12.54C22.109 11.6642 21.8709 10.763 21.3 10.08ZM7 20H5C4.44772 20 4 19.5523 4 19V12C4 11.4478 4.44772 11 5 11H7V20ZM18.73 19.18L20 12.18C20.0494 11.8861 19.965 11.5854 19.77 11.36C19.5796 11.1315 19.2974 10.9996 19 11H14.44C13.7851 10.9989 13.1722 10.6772 12.7993 10.1388C12.4264 9.60039 12.3408 8.91354 12.57 8.30005L13.1 6.87004C13.3108 6.31939 13.2816 5.70566 13.0194 5.17754C12.7572 4.64941 12.2861 4.25507 11.72 4.09004L9 10.21V20H17.73C18.219 20.008 18.642 19.6611 18.73 19.18Z" fill="white"/>
</mask>
<g mask="url(#mask0)">
<rect width="24" height="24" fill="#245099"/>
</g>
</svg>
