<?xml version="1.0" encoding="UTF-8"?>
<svg width="69px" height="80px" viewBox="0 0 69 80" version="1.1" xmlns="http://www.w3.org/2000/svg" xmlns:xlink="http://www.w3.org/1999/xlink">
    <title>Path 3</title>
    <defs>
        <path d="M20.3475798,49.9999841 C7.0248168,39.3238244 0.35809214,29.3202044 0.347393163,19.9891242 C0.335085351,8.94945186 9.30188833,0 20.3475798,0 C31.3932713,0 40.3474058,8.94943576 40.3474058,19.9891242 C40.3474058,29.3179516 33.6807972,39.3215715 20.3475798,49.9999841 Z M20.3475817,25.9858615 C23.6612873,25.9858615 26.3475817,23.3010308 26.3475817,19.9891242 C26.3475817,16.6772177 23.6612873,13.992387 20.3475817,13.992387 C17.0338724,13.992387 14.3475817,16.6772177 14.3475817,19.9891242 C14.3475817,23.3010308 17.0338724,25.9858615 20.3475817,25.9858615 Z" id="path-1"></path>
        <filter x="-52.5%" y="-42.0%" width="205.0%" height="186.1%" filterUnits="objectBoundingBox" id="filter-3">
            <feMorphology radius="2" operator="dilate" in="SourceAlpha" result="shadowSpreadOuter1"></feMorphology>
            <feOffset dx="0" dy="0" in="shadowSpreadOuter1" result="shadowOffsetOuter1"></feOffset>
            <feGaussianBlur stdDeviation="5" in="shadowOffsetOuter1" result="shadowBlurOuter1"></feGaussianBlur>
            <feColorMatrix values="0 0 0 0 1   0 0 0 0 1   0 0 0 0 1  0 0 0 1 0" type="matrix" in="shadowBlurOuter1"></feColorMatrix>
        </filter>
    </defs>
    <g id="☎️-Contacts" stroke="none" stroke-width="1" fill="none" fill-rule="evenodd">
        <g id="01_Дилеры-Развёрнутая-карта-+-Хавер" transform="translate(-650.000000, -1681.000000)">
            <g id="Group-11" transform="translate(104.000000, 176.000000)">
                <g id="Group-8-Copy" transform="translate(304.000000, 960.000000)">
                    <g id="Снимок-экрана-2019-06-11-в-20.36.57" transform="translate(0.000000, 384.000000)">
                        <g id="Group-3" transform="translate(-191.000000, -65.000000)">
                            <g id="Path-3" transform="translate(447.000000, 240.000000)">
                                <mask id="mask-2" fill="white">
                                    <use xlink:href="#path-1"></use>
                                </mask>
                                <g id="Mask">
                                    <use fill="black" fill-opacity="1" filter="url(#filter-3)" xlink:href="#path-1"></use>
                                    <use fill="#35A9AD" fill-rule="evenodd" xlink:href="#path-1"></use>
                                </g>
                                <polygon fill="#24509A" mask="url(#mask-2)" points="-7 34.4916645 48.0259496 5.46629126 49.722518 60.5813406 -4.35915858 60.5813406"></polygon>
                            </g>
                        </g>
                    </g>
                </g>
            </g>
        </g>
    </g>
</svg>