<svg width="56" height="56" viewBox="0 0 56 56" fill="none" xmlns="http://www.w3.org/2000/svg">
<circle cx="28" cy="28" r="28" fill="#35A9AD"/>
<path opacity="0.25" d="M31.0001 18C29.3635 18.0008 27.7789 18.5752 26.5219 19.6234C25.2649 20.6716 24.415 22.1271 24.1201 23.737C25.2581 23.1147 26.567 22.878 27.8509 23.0622C29.1347 23.2464 30.3243 23.8416 31.2414 24.7587C32.1585 25.6758 32.7538 26.8654 32.938 28.1492C33.1221 29.4331 32.8854 30.742 32.2631 31.88C33.9815 31.566 35.5203 30.6205 36.5769 29.2295C37.6336 27.8385 38.1317 26.1026 37.9734 24.3629C37.8151 22.6233 37.0118 21.0058 35.7215 19.8283C34.4311 18.6509 32.747 17.9987 31.0001 18Z" fill="white"/>
<path d="M23 38C25.7614 38 28 35.7614 28 33C28 30.2386 25.7614 28 23 28C20.2386 28 18 30.2386 18 33C18 35.7614 20.2386 38 23 38Z" fill="white"/>
<path opacity="0.5" d="M26.9998 23C25.5114 23.0001 24.0762 23.5534 22.973 24.5525C21.8697 25.5515 21.1771 26.9249 21.0298 28.406C21.9481 28.0113 22.9637 27.9012 23.9453 28.0897C24.9269 28.2782 25.8294 28.7568 26.5362 29.4636C27.243 30.1704 27.7216 31.0729 27.9101 32.0545C28.0986 33.0361 27.9884 34.0517 27.5938 34.97C29.125 34.8163 30.5386 34.0801 31.5424 32.9137C32.5462 31.7472 33.0635 30.2396 32.9872 28.7026C32.9109 27.1656 32.247 25.7166 31.1326 24.6553C30.0183 23.5939 28.5387 23.0013 26.9998 23Z" fill="white"/>
</svg>
