<svg width="48" height="32" viewBox="0 0 48 32" fill="none" xmlns="http://www.w3.org/2000/svg">
<path d="M47.0111 5.00704C46.4576 3.0494 44.8365 1.50588 42.7805 0.978819C39.0244 0 23.9998 0 23.9998 0C23.9998 0 8.97521 0 5.21907 0.941173C3.20261 1.46823 1.542 3.0494 0.98846 5.00704C0 8.58349 0 15.9999 0 15.9999C0 15.9999 0 23.454 0.98846 26.9928C1.542 28.9505 3.16307 30.494 5.21907 31.021C9.01475 31.9999 23.9998 31.9999 23.9998 31.9999C23.9998 31.9999 39.0244 31.9999 42.7805 31.0587C44.8365 30.5316 46.4576 28.9881 47.0111 27.0305C47.9996 23.454 47.9996 16.0376 47.9996 16.0376C47.9996 16.0376 48.0391 8.58349 47.0111 5.00704Z" fill="white"/>
<path d="M32 15.9999L20 8.99997V22.9999L32 15.9999Z" fill="#111721"/>
</svg>
